<?xml version="1.0" encoding="UTF-8" standalone="no"?>
<!DOCTYPE svg PUBLIC "-//W3C//DTD SVG 1.1//EN" "http://www.w3.org/Graphics/SVG/1.1/DTD/svg11.dtd">
<svg width="100%" height="100%" viewBox="0 0 28 40" version="1.1" xmlns="http://www.w3.org/2000/svg" xmlns:xlink="http://www.w3.org/1999/xlink" xml:space="preserve" xmlns:serif="http://www.serif.com/" style="fill-rule:evenodd;clip-rule:evenodd;stroke-linecap:round;stroke-linejoin:round;stroke-miterlimit:1.5;">
    <g>
        <path d="M7.761,31.289c-0.544,1.159 -1.192,2.187 -1.944,3.082l-0.456,-0.539c1.12,-1.312 2.008,-2.983 2.663,-5.014l0.648,0.156c-0.152,0.471 -0.36,1.031 -0.624,1.679l5.374,0l0,0.636l-4.186,0l0,2.183l3.635,0l0,0.648l-3.635,0l0,2.219l3.73,0l0,0.635l-3.73,0l0,2.855l-0.648,0l0,-8.54l-0.827,0Zm-3.611,1.511c-0.448,0.592 -0.92,1.144 -1.415,1.655l-0.204,-0.683c1.327,-1.44 2.295,-3.071 2.902,-4.894l0.6,0.275c-0.328,0.968 -0.739,1.86 -1.235,2.675l0,8.001l-0.648,0l0,-7.029Z" style="fill-rule:nonzero;"/>
        <path d="M16.805,29.453l6.477,0l0,3.731l-6.477,0l0,-3.731Zm5.818,3.107l0,-2.483l-5.158,0l0,2.483l5.158,0Zm-3.335,2.039l0,5.038l-0.636,0l0,-0.635l-2.771,0l0,0.635l-0.635,0l0,-5.038l4.042,0Zm-3.407,3.791l2.771,0l0,-3.179l-2.771,0l0,3.179Zm8.985,-3.791l0,5.038l-0.648,0l0,-0.635l-2.891,0l0,0.635l-0.636,0l0,-5.038l4.175,0Zm-3.539,3.791l2.891,0l0,-3.179l-2.891,0l0,3.179Z" style="fill-rule:nonzero;"/>
        <g>
            <path d="M9.892,22.425c-0.629,0.626 -1.448,1.024 -2.328,1.133c-1.779,0.221 -4.677,0.581 -4.677,0.581c0,0 0.519,-3.127 0.823,-4.956c0.139,-0.839 0.542,-1.612 1.15,-2.207c2.547,-2.488 9.667,-9.446 13.514,-13.205c1.412,-1.379 3.668,-1.372 5.072,0.015c0,0 0,0 0,0c0.689,0.681 1.077,1.608 1.078,2.575c0.002,0.968 -0.384,1.896 -1.07,2.578c-3.871,3.85 -10.98,10.918 -13.562,13.486Z" style="fill:none;stroke:rgb(13,13,13);stroke-width:1.5px;"/>
            <path d="M4.165,4.078c1.484,-1.525 3.921,-1.57 5.46,-0.1c1.999,1.908 4.344,4.146 4.344,4.146l-5.547,5.42c0,0 -2.213,-2.103 -4.15,-3.943c-0.752,-0.715 -1.187,-1.701 -1.207,-2.738c-0.021,-1.037 0.375,-2.04 1.099,-2.783c0,-0.001 0,-0.001 0.001,-0.002Z" style="fill:none;stroke:rgb(13,13,13);stroke-width:1.5px;"/>
            <path d="M19.438,13.044c0,0 2.345,2.341 4.299,4.293c1.446,1.445 1.487,3.776 0.092,5.271c0,0 0,0 -0.001,0c-0.694,0.744 -1.657,1.178 -2.674,1.207c-1.017,0.028 -2.003,-0.353 -2.737,-1.057c-2.037,-1.955 -4.448,-4.268 -4.448,-4.268l5.469,-5.446Z" style="fill:none;stroke:rgb(13,13,13);stroke-width:1.5px;"/>
            <path d="M16.85,10.755l-5.85,5.578" style="fill:none;stroke:rgb(38,38,38);stroke-width:1.5px;"/>
            <path d="M8.625,23.076c0.057,0.06 0.075,0.147 0.047,0.224c-0.028,0.078 -0.097,0.133 -0.178,0.143c-1.378,0.171 -5.607,0.696 -5.607,0.696c0,0 0.684,-4.122 0.925,-5.572c0.015,-0.094 0.082,-0.17 0.173,-0.198c0.091,-0.028 0.19,-0.002 0.255,0.067c0.937,0.991 3.51,3.714 4.385,4.64Z" style="fill:none;stroke:rgb(13,13,13);stroke-width:1.5px;"/>
        </g>
    </g>
</svg>
