<?xml version="1.0" encoding="UTF-8" standalone="no"?><!DOCTYPE svg PUBLIC "-//W3C//DTD SVG 1.1//EN" "http://www.w3.org/Graphics/SVG/1.1/DTD/svg11.dtd"><svg width="100%" height="100%" viewBox="0 0 27 41" version="1.1" xmlns="http://www.w3.org/2000/svg" xmlns:xlink="http://www.w3.org/1999/xlink" xml:space="preserve" xmlns:serif="http://www.serif.com/" style="fill-rule:evenodd;clip-rule:evenodd;stroke-linecap:round;stroke-linejoin:round;stroke-miterlimit:1.5;"><g><text x="2.063px" y="39.13px" style="font-family:'PingFang SC Regular', 'PingFang SC', sans-serif;font-size:11.995px;">作品</text><g><path d="M9.892,21.804c-0.629,0.625 -1.448,1.024 -2.328,1.133c-1.779,0.221 -4.677,0.581 -4.677,0.581c0,0 0.519,-3.127 0.823,-4.956c0.139,-0.839 0.542,-1.612 1.15,-2.207c2.547,-2.489 9.667,-9.446 13.514,-13.205c1.412,-1.379 3.668,-1.372 5.072,0.015c0,0 0,0 0,0c0.689,0.681 1.077,1.608 1.078,2.575c0.002,0.968 -0.384,1.896 -1.07,2.578c-3.871,3.85 -10.98,10.918 -13.562,13.486Z" style="fill:#fee673;stroke:#0d0d0d;stroke-width:1px;"/><path d="M4.165,3.457c1.484,-1.525 3.921,-1.57 5.46,-0.1c1.999,1.908 4.344,4.146 4.344,4.146l-5.547,5.42c0,0 -2.213,-2.103 -4.15,-3.943c-0.752,-0.715 -1.187,-1.701 -1.207,-2.738c-0.021,-1.037 0.375,-2.04 1.099,-2.783c0,-0.001 0,-0.001 0.001,-0.002Z" style="fill:#fee673;stroke:#0d0d0d;stroke-width:1px;"/><path d="M19.438,12.423c0,0 2.345,2.341 4.299,4.293c1.446,1.445 1.487,3.776 0.092,5.271c0,0 0,0 -0.001,0c-0.694,0.744 -1.657,1.178 -2.674,1.206c-1.017,0.029 -2.003,-0.352 -2.737,-1.056c-2.037,-1.955 -4.448,-4.268 -4.448,-4.268l5.469,-5.446Z" style="fill:#fee673;stroke:#0d0d0d;stroke-width:1px;"/><path d="M16.85,10.134l-5.85,5.578" style="fill:none;stroke:#262626;stroke-width:1px;"/><path d="M8.625,22.455c0.057,0.06 0.075,0.147 0.047,0.224c-0.028,0.078 -0.097,0.133 -0.178,0.143c-1.378,0.171 -5.607,0.696 -5.607,0.696c0,0 0.684,-4.122 0.925,-5.572c0.015,-0.094 0.082,-0.171 0.173,-0.198c0.091,-0.028 0.19,-0.002 0.255,0.067c0.937,0.991 3.51,3.714 4.385,4.64Z" style="fill:none;stroke:#0d0d0d;stroke-width:1px;"/></g></g></svg>