<?xml version="1.0" encoding="UTF-8" standalone="no"?>
<!DOCTYPE svg PUBLIC "-//W3C//DTD SVG 1.1//EN" "http://www.w3.org/Graphics/SVG/1.1/DTD/svg11.dtd">
<svg width="100%" height="100%" viewBox="0 0 27 41" version="1.1" xmlns="http://www.w3.org/2000/svg" xmlns:xlink="http://www.w3.org/1999/xlink" xml:space="preserve" xmlns:serif="http://www.serif.com/" style="fill-rule:evenodd;clip-rule:evenodd;stroke-linecap:round;stroke-linejoin:round;stroke-miterlimit:1.5;">
    <g>
        <path d="M7.656,36.217c-0.728,0.248 -1.496,0.476 -2.304,0.684l0,2.759c0,0.695 -0.331,1.043 -0.995,1.043l-1.32,0l-0.144,-0.611c0.432,0.024 0.844,0.036 1.236,0.036c0.384,0 0.576,-0.212 0.576,-0.636l0,-2.435c-0.744,0.168 -1.576,0.328 -2.495,0.48l-0.096,-0.636c0.911,-0.144 1.775,-0.312 2.591,-0.504l0,-2.507l-2.567,0l0,-0.624l2.567,0l0,-1.883c-0.68,0.144 -1.38,0.264 -2.099,0.36l-0.132,-0.624c1.711,-0.192 3.234,-0.548 4.57,-1.067l0.228,0.611c-0.608,0.216 -1.248,0.408 -1.92,0.576l0,2.027l3.143,0c-0.08,-0.951 -0.12,-2.059 -0.12,-3.322l0.648,0c0,1.255 0.036,2.363 0.108,3.322l3.778,0l0,0.624l-3.73,0c0.088,0.928 0.208,1.699 0.36,2.315c0.088,0.36 0.184,0.696 0.288,1.008c0.639,-0.744 1.191,-1.596 1.655,-2.555l0.564,0.3c-0.552,1.151 -1.212,2.131 -1.979,2.938c0.168,0.44 0.367,0.84 0.599,1.2c0.408,0.6 0.744,0.9 1.008,0.9c0.288,-0.016 0.536,-0.732 0.744,-2.148l0.575,0.312c-0.287,1.688 -0.695,2.531 -1.223,2.531c-0.464,0 -0.968,-0.364 -1.511,-1.091c-0.248,-0.352 -0.476,-0.76 -0.684,-1.224c-0.888,0.824 -1.903,1.46 -3.047,1.907l-0.36,-0.551c1.208,-0.456 2.259,-1.124 3.155,-2.003c-0.152,-0.416 -0.288,-0.88 -0.408,-1.392c-0.16,-0.672 -0.284,-1.487 -0.372,-2.447l-3.191,0l0,2.351c0.816,-0.216 1.584,-0.444 2.304,-0.684l0,0.66Zm2.687,-6.118c0.863,0.584 1.595,1.184 2.195,1.8l-0.456,0.456c-0.536,-0.568 -1.264,-1.18 -2.183,-1.836l0.444,-0.42Z" style="fill-rule:nonzero;"/>
        <path d="M18.271,32.067l0,8.061l-0.623,0l0,-0.732l-2.423,0l0,1.067l-0.624,0l0,-8.396l1.079,0c0.248,-0.68 0.428,-1.396 0.54,-2.147l0.66,0.084c-0.128,0.735 -0.32,1.423 -0.576,2.063l1.967,0Zm-3.046,6.729l2.423,0l0,-2.843l-2.423,0l0,2.843Zm0,-3.431l2.423,0l0,-2.675l-2.423,0l0,2.675Zm5.086,-0.587c0.919,1.015 1.615,1.895 2.087,2.639l-0.516,0.371c-0.48,-0.775 -1.18,-1.667 -2.099,-2.674l0.528,-0.336Zm4.174,-2.699c0,3.846 -0.056,6.241 -0.168,7.185c-0.12,0.96 -0.676,1.439 -1.667,1.439l-1.176,-0.024l-0.156,-0.599c0.48,0.024 0.9,0.036 1.26,0.036c0.647,0 1.019,-0.356 1.115,-1.068c0.088,-0.656 0.144,-2.763 0.168,-6.322l-3.538,0c-0.344,0.792 -0.748,1.492 -1.212,2.1l-0.384,-0.504c0.864,-1.2 1.452,-2.671 1.764,-4.414l0.635,0.072c-0.152,0.783 -0.336,1.483 -0.552,2.099l3.911,0Z" style="fill-rule:nonzero;"/>
        <g>
            <circle cx="13.299" cy="13.018" r="11.995" style="fill:none;stroke:rgb(13,13,13);stroke-width:2px;"/>
            <path d="M5.663,9.956l5.248,0" style="fill:none;stroke:rgb(13,13,13);stroke-width:2px;"/>
            <path d="M5.663,13.426l5.248,0" style="fill:none;stroke:rgb(13,13,13);stroke-width:2px;"/>
            <path d="M5.663,16.897l4.082,0" style="fill:none;stroke:rgb(13,13,13);stroke-width:2px;"/>
            <circle cx="16.765" cy="11.144" r="2.449" style="fill:none;stroke:rgb(13,13,13);stroke-width:2px;"/>
            <path d="M21.629,18.091c0,-2.63 -2.132,-4.763 -4.763,-4.763c-2.63,0 -4.763,2.133 -4.763,4.763l1.667,0c0,-1.71 1.386,-3.096 3.096,-3.096c1.71,0 3.096,1.386 3.096,3.096l1.667,0Z" style="fill:rgb(13,13,13);"/>
        </g>
    </g>
</svg>
