<?xml version="1.0" encoding="UTF-8" standalone="no"?><!DOCTYPE svg PUBLIC "-//W3C//DTD SVG 1.1//EN" "http://www.w3.org/Graphics/SVG/1.1/DTD/svg11.dtd"><svg width="100%" height="100%" viewBox="0 0 70 49" version="1.1" xmlns="http://www.w3.org/2000/svg" xmlns:xlink="http://www.w3.org/1999/xlink" xml:space="preserve" xmlns:serif="http://www.serif.com/" style="fill-rule:evenodd;clip-rule:evenodd;stroke-linejoin:round;stroke-miterlimit:2;"><rect x="0.447" y="0.255" width="69" height="48.474" style="fill:#fff;fill-opacity:0;"/><path d="M3.535,21.541l12.928,0l0,1.12l-5.952,0l0,6.048l6.56,0l0,1.104l-6.56,0l0,5.664l-1.184,0l0,-5.664l-6.432,0l0,-1.104l6.432,0l0,-6.048l-5.792,0l0,-1.12Zm1.952,2.144c0.619,1.141 1.195,2.362 1.728,3.664l-1.072,0.528c-0.533,-1.355 -1.109,-2.576 -1.728,-3.664l1.072,-0.528Zm10.128,0.416c-0.469,1.226 -1.104,2.464 -1.904,3.712l-1.024,-0.528c0.789,-1.27 1.413,-2.496 1.872,-3.68l1.056,0.496Z" style="fill:#717171;fill-rule:nonzero;"/><path d="M18.863,21.461l14.24,0l0,1.12l-6.416,0c-0.117,0.661 -0.315,1.344 -0.592,2.048l6.144,0l0,10.912l-1.104,0l0,-0.8l-10.256,0l0,0.8l-1.104,0l0,-10.912l5.152,0c0.277,-0.736 0.475,-1.419 0.592,-2.048l-6.656,0l0,-1.12Zm2.016,12.224l2.208,0l0,-8.016l-2.208,0l0,8.016Zm3.28,0l3.648,0l0,-2.048l-3.648,0l0,2.048Zm4.72,0l2.256,0l0,-8.016l-2.256,0l0,8.016Zm-4.72,-3.056l3.648,0l0,-1.952l-3.648,0l0,1.952Zm0,-2.976l3.648,0l0,-1.984l-3.648,0l0,1.984Z" style="fill:#717171;fill-rule:nonzero;"/><path d="M36.495,21.061c1.056,0.821 1.947,1.632 2.672,2.432l-0.784,0.8c-0.672,-0.8 -1.568,-1.627 -2.688,-2.48l0.8,-0.752Zm-1.792,4.688l3.344,0l0,7.104c0.661,-0.555 1.28,-1.104 1.856,-1.648l0.32,1.216c-0.981,0.917 -2.048,1.754 -3.2,2.512l-0.448,-1.024c0.235,-0.235 0.352,-0.475 0.352,-0.72l0,-6.336l-2.224,0l0,-1.104Zm5.68,1.872l7.616,0l0,1.056c-0.512,1.514 -1.349,2.81 -2.512,3.888c1.067,0.736 2.395,1.397 3.984,1.984l-0.624,0.992c-1.717,-0.694 -3.115,-1.456 -4.192,-2.288c-1.248,0.938 -2.827,1.701 -4.736,2.288l-0.64,-0.976c1.781,-0.534 3.269,-1.222 4.464,-2.064c-1.205,-1.11 -2.032,-2.363 -2.48,-3.76l-0.88,0l0,-1.12Zm1.968,1.12c0.416,1.162 1.152,2.197 2.208,3.104c1.035,-0.907 1.803,-1.942 2.304,-3.104l-4.512,0Zm-0.736,-7.296l5.376,0l0,3.456c0,0.405 0.208,0.608 0.624,0.608l1.472,0l0,1.056l-1.76,0c-0.981,0 -1.472,-0.475 -1.472,-1.424l0,-2.608l-3.104,0l0,0.56c0,1.685 -0.821,2.997 -2.464,3.936l-0.768,-0.88c1.397,-0.694 2.096,-1.67 2.096,-2.928l0,-1.776Z" style="fill:#717171;fill-rule:nonzero;"/><path d="M55.711,25.621l4.336,0l0,-4.816l1.184,0l0,4.816l4.112,0l0,1.152l-4.112,0l0,8.752l-1.184,0l0,-8.752l-4.336,0l0,-1.152Zm-3.136,-4.64c1.099,0.821 2.011,1.642 2.736,2.464l-0.784,0.8c-0.661,-0.779 -1.579,-1.606 -2.752,-2.48l0.8,-0.784Zm-1.872,4.736l3.456,0l0,7.12c0.747,-0.63 1.376,-1.184 1.888,-1.664l0.288,1.184c-0.96,0.928 -2.027,1.781 -3.2,2.56l-0.448,-1.04c0.245,-0.192 0.368,-0.416 0.368,-0.672l0,-6.384l-2.352,0l0,-1.104Z" style="fill:#717171;fill-rule:nonzero;"/></svg>