<?xml version="1.0" encoding="UTF-8" standalone="no"?><!DOCTYPE svg PUBLIC "-//W3C//DTD SVG 1.1//EN" "http://www.w3.org/Graphics/SVG/1.1/DTD/svg11.dtd"><svg width="100%" height="100%" viewBox="0 0 70 49" version="1.1" xmlns="http://www.w3.org/2000/svg" xmlns:xlink="http://www.w3.org/1999/xlink" xml:space="preserve" xmlns:serif="http://www.serif.com/" style="fill-rule:evenodd;clip-rule:evenodd;stroke-linejoin:round;stroke-miterlimit:2;"><rect x="0.447" y="0.29" width="69" height="48.474" style="fill:#fff;fill-opacity:0;"/><clipPath id="_clip1"><rect x="0.447" y="0.29" width="69" height="48.474"/></clipPath><g clip-path="url(#_clip1)"><rect x="0.119" y="33.02" width="70" height="6.046" style="fill:#fee673;"/><path d="M3.487,21.415l13.024,0l0,1.488l-5.824,0l0,5.664l6.432,0l0,1.456l-6.432,0l0,5.536l-1.536,0l0,-5.536l-6.304,0l0,-1.456l6.304,0l0,-5.664l-5.664,0l0,-1.488Zm2.24,2.24c0.597,1.131 1.157,2.326 1.68,3.584l-1.424,0.704c-0.523,-1.344 -1.083,-2.544 -1.68,-3.6l1.424,-0.688Zm10.032,0.592c-0.448,1.195 -1.051,2.4 -1.808,3.616l-1.376,-0.704c0.747,-1.205 1.344,-2.394 1.792,-3.568l1.392,0.656Z" style="fill:#262626;fill-rule:nonzero;"/><path d="M18.815,21.351l14.336,0l0,1.456l-6.304,0c-0.139,0.608 -0.304,1.168 -0.496,1.68l6.048,0l0,11.136l-1.472,0l0,-0.672l-9.84,0l0,0.672l-1.472,0l0,-11.136l5.2,0c0.213,-0.544 0.373,-1.104 0.48,-1.68l-6.48,0l0,-1.456Zm2.272,12.192l1.824,0l0,-7.664l-1.824,0l0,7.664Zm3.248,0l3.296,0l0,-1.728l-3.296,0l0,1.728Zm4.72,0l1.872,0l0,-7.664l-1.872,0l0,7.664Zm-4.72,-3.024l3.296,0l0,-1.664l-3.296,0l0,1.664Zm0,-2.976l3.296,0l0,-1.664l-3.296,0l0,1.664Z" style="fill:#262626;fill-rule:nonzero;"/><path d="M36.671,21.015c1.024,0.79 1.893,1.574 2.608,2.352l-1.04,1.056c-0.619,-0.736 -1.493,-1.536 -2.624,-2.4l1.056,-1.008Zm-2.032,4.592l3.584,0l0,6.768c0.448,-0.373 0.981,-0.853 1.6,-1.44l0.416,1.6c-1.056,0.982 -2.16,1.84 -3.312,2.576l-0.576,-1.376c0.267,-0.234 0.4,-0.517 0.4,-0.848l0,-5.824l-2.112,0l0,-1.456Zm5.712,1.904l7.76,0l0,1.392c-0.459,1.419 -1.227,2.64 -2.304,3.664c1.045,0.683 2.283,1.28 3.712,1.792l-0.816,1.312c-1.547,-0.618 -2.885,-1.344 -4.016,-2.176c-1.237,0.886 -2.779,1.606 -4.624,2.16l-0.848,-1.28c1.707,-0.501 3.131,-1.13 4.272,-1.888c-1.099,-1.066 -1.84,-2.234 -2.224,-3.504l-0.912,0l0,-1.472Zm2.336,1.472c0.363,0.971 0.992,1.856 1.888,2.656c0.875,-0.8 1.541,-1.685 2,-2.656l-3.888,0Zm-1.216,-7.648l5.664,0l0,3.36c0,0.363 0.197,0.544 0.592,0.544l1.408,0l0,1.392l-1.808,0c-1.131,0 -1.696,-0.533 -1.696,-1.6l0,-2.272l-2.656,0l0,0.48c0,1.664 -0.843,2.955 -2.528,3.872l-1.008,-1.168c1.355,-0.608 2.032,-1.456 2.032,-2.544l0,-2.064Z" style="fill:#262626;fill-rule:nonzero;"/><path d="M55.663,25.479l4.192,0l0,-4.688l1.568,0l0,4.688l3.968,0l0,1.504l-3.968,0l0,8.624l-1.568,0l0,-8.624l-4.192,0l0,-1.504Zm-2.912,-4.544c1.056,0.8 1.936,1.59 2.64,2.368l-1.04,1.056c-0.661,-0.778 -1.547,-1.573 -2.656,-2.384l1.056,-1.04Zm-2.112,4.64l3.696,0l0,6.816c0.437,-0.352 0.971,-0.826 1.6,-1.424l0.4,1.552c-1.035,0.971 -2.133,1.83 -3.296,2.576l-0.576,-1.36c0.277,-0.224 0.416,-0.496 0.416,-0.816l0,-5.888l-2.24,0l0,-1.456Z" style="fill:#262626;fill-rule:nonzero;"/></g></svg>