<?xml version="1.0" encoding="UTF-8" standalone="no"?><!DOCTYPE svg PUBLIC "-//W3C//DTD SVG 1.1//EN" "http://www.w3.org/Graphics/SVG/1.1/DTD/svg11.dtd"><svg width="100%" height="100%" viewBox="0 0 70 49" version="1.1" xmlns="http://www.w3.org/2000/svg" xmlns:xlink="http://www.w3.org/1999/xlink" xml:space="preserve" xmlns:serif="http://www.serif.com/" style="fill-rule:evenodd;clip-rule:evenodd;stroke-linejoin:round;stroke-miterlimit:2;"><rect x="0.678" y="0.255" width="69" height="48.474" style="fill:#fff;fill-opacity:0;"/><path d="M10.995,31.861c-0.459,-0.726 -0.966,-1.494 -1.52,-2.304c-0.566,1.557 -1.264,2.901 -2.096,4.032l-0.736,-0.896c0.832,-1.184 1.52,-2.587 2.064,-4.208c-0.736,-0.982 -1.488,-1.915 -2.256,-2.8l0.72,-0.688c0.64,0.672 1.274,1.429 1.904,2.272c0.309,-1.152 0.56,-2.358 0.752,-3.616l1.056,0.192c-0.256,1.642 -0.592,3.146 -1.008,4.512c0.704,0.96 1.333,1.872 1.888,2.736l-0.768,0.768Zm4.688,0.736c-0.459,-0.79 -0.998,-1.675 -1.616,-2.656c-0.64,1.568 -1.392,2.912 -2.256,4.032l-0.736,-0.88c0.906,-1.227 1.653,-2.651 2.24,-4.272c-0.79,-1.163 -1.52,-2.155 -2.192,-2.976l0.72,-0.688c0.65,0.736 1.28,1.541 1.888,2.416c0.33,-1.11 0.613,-2.4 0.848,-3.872l1.088,0.192c-0.288,1.77 -0.672,3.376 -1.152,4.816c0.672,1.024 1.322,2.064 1.952,3.12l-0.784,0.768Zm-0.88,2.8l-0.304,-1.12l1.536,0.048c0.448,0 0.672,-0.219 0.672,-0.656l0,-11.088l-10.496,0l0,12.88l-1.136,0l0,-13.984l12.768,0l0,12.448c0,0.981 -0.475,1.472 -1.424,1.472l-1.616,0Z" style="fill:#717171;fill-rule:nonzero;"/><path d="M32.403,24.325l0,7.568l-1.152,0l0,-6.448l-7.648,0l0,6.48l-1.152,0l0,-7.6l4.048,0c0.149,-0.534 0.266,-1.115 0.352,-1.744l-6.432,0l0,-1.088l14.08,0l0,1.088l-6.432,0c-0.107,0.704 -0.23,1.285 -0.368,1.744l4.704,0Zm-3.888,7.6c2.122,0.725 4.005,1.568 5.648,2.528l-0.704,1.088c-1.846,-1.152 -3.707,-2.043 -5.584,-2.672l0.64,-0.944Zm-1.648,-5.52l1.184,0l0,2.544c-0.064,1.738 -0.63,3.141 -1.696,4.208c-1.014,0.97 -2.694,1.728 -5.04,2.272l-0.656,-1.024c2.325,-0.512 3.941,-1.19 4.848,-2.032c0.853,-0.875 1.306,-2.016 1.36,-3.424l0,-2.544Z" style="fill:#717171;fill-rule:nonzero;"/><path d="M41.731,20.773l1.136,0l-5.664,14.72l-1.152,0l5.68,-14.72Z" style="fill:#717171;fill-rule:nonzero;"/><path d="M44.611,22.469l1.312,0l0,7.056c0,1.13 0.25,1.978 0.752,2.544c0.533,0.597 1.365,0.896 2.496,0.896c1.12,0 1.952,-0.299 2.496,-0.896c0.501,-0.587 0.752,-1.435 0.752,-2.544l0,-7.056l1.312,0l0,7.04c0,1.482 -0.379,2.618 -1.136,3.408c-0.779,0.8 -1.92,1.2 -3.424,1.2c-1.504,0 -2.64,-0.395 -3.408,-1.184c-0.768,-0.8 -1.152,-1.942 -1.152,-3.424l0,-7.04Z" style="fill:#717171;fill-rule:nonzero;"/><rect x="56.131" y="22.469" width="1.296" height="11.424" style="fill:#717171;fill-rule:nonzero;"/></svg>