<?xml version="1.0" encoding="UTF-8" standalone="no"?><!DOCTYPE svg PUBLIC "-//W3C//DTD SVG 1.1//EN" "http://www.w3.org/Graphics/SVG/1.1/DTD/svg11.dtd"><svg width="100%" height="100%" viewBox="0 0 70 49" version="1.1" xmlns="http://www.w3.org/2000/svg" xmlns:xlink="http://www.w3.org/1999/xlink" xml:space="preserve" xmlns:serif="http://www.serif.com/" style="fill-rule:evenodd;clip-rule:evenodd;stroke-linejoin:round;stroke-miterlimit:2;"><rect x="0.678" y="0.29" width="69" height="48.474" style="fill:#fff;fill-opacity:0;"/><clipPath id="_clip1"><rect x="0.678" y="0.29" width="69" height="48.474"/></clipPath><g clip-path="url(#_clip1)"><rect x="0.35" y="33.02" width="70" height="6.046" style="fill:#fee673;"/><path d="M11.666,31.879c-0.448,-0.725 -0.87,-1.365 -1.264,-1.92c-0.544,1.44 -1.184,2.688 -1.92,3.744l-0.976,-1.184c0.736,-1.12 1.365,-2.448 1.888,-3.984c-0.619,-0.853 -1.323,-1.744 -2.112,-2.672l0.928,-0.912c0.448,0.47 1.002,1.126 1.664,1.968c0.256,-1.066 0.458,-2.138 0.608,-3.216l1.392,0.24c-0.246,1.654 -0.555,3.12 -0.928,4.4c0.544,0.768 1.12,1.616 1.728,2.544l-1.008,0.992Zm4.608,0.768c-0.406,-0.725 -0.864,-1.493 -1.376,-2.304c-0.598,1.451 -1.291,2.699 -2.08,3.744l-0.96,-1.168c0.821,-1.162 1.514,-2.512 2.08,-4.048c-0.672,-0.992 -1.36,-1.936 -2.064,-2.832l0.944,-0.896c0.533,0.598 1.077,1.291 1.632,2.08c0.288,-1.077 0.528,-2.234 0.72,-3.472l1.408,0.24c-0.288,1.739 -0.656,3.323 -1.104,4.752c0.618,0.95 1.226,1.915 1.824,2.896l-1.024,1.008Zm-0.656,2.832l-0.4,-1.472l1.504,0.064c0.394,0 0.592,-0.186 0.592,-0.56l0,-10.688l-10.048,0l0,12.752l-1.504,0l0,-14.208l13.056,0l0,12.48c0,1.088 -0.534,1.632 -1.6,1.632l-1.6,0Z" style="fill:#262626;fill-rule:nonzero;"/><path d="M33.41,24.199l0,7.76l-1.536,0l0,-6.272l-7.232,0l0,6.288l-1.536,0l0,-7.776l4.08,0c0.128,-0.618 0.213,-1.088 0.256,-1.408l-6.24,0l0,-1.44l14.176,0l0,1.44l-6.288,0c-0.128,0.64 -0.235,1.11 -0.32,1.408l4.64,0Zm-3.952,7.584c2.058,0.662 3.925,1.462 5.6,2.4l-0.944,1.44c-1.814,-1.098 -3.643,-1.957 -5.488,-2.576l0.832,-1.264Zm-1.936,-5.328l1.536,0l0,2.544c-0.096,1.771 -0.672,3.195 -1.728,4.272c-1.003,0.971 -2.688,1.734 -5.056,2.288l-0.864,-1.36c2.346,-0.512 3.93,-1.157 4.752,-1.936c0.821,-0.821 1.274,-1.909 1.36,-3.264l0,-2.544Z" style="fill:#262626;fill-rule:nonzero;"/><path d="M42.354,20.807l1.472,0l-5.584,14.72l-1.488,0l5.6,-14.72Z" style="fill:#262626;fill-rule:nonzero;"/><path d="M45.41,22.503l1.744,0l0,7.104c0,1.035 0.234,1.792 0.704,2.272c0.48,0.502 1.237,0.752 2.272,0.752c1.024,0 1.776,-0.25 2.256,-0.752c0.469,-0.501 0.704,-1.258 0.704,-2.272l0,-7.104l1.744,0l0,7.072c0,1.483 -0.411,2.619 -1.232,3.408c-0.832,0.779 -1.99,1.168 -3.472,1.168c-1.515,0 -2.672,-0.384 -3.472,-1.152c-0.832,-0.8 -1.248,-1.941 -1.248,-3.424l0,-7.072Z" style="fill:#262626;fill-rule:nonzero;"/><rect x="57.106" y="22.503" width="1.728" height="11.424" style="fill:#262626;fill-rule:nonzero;"/></g></svg>