<?xml version="1.0" encoding="UTF-8" standalone="no"?><!DOCTYPE svg PUBLIC "-//W3C//DTD SVG 1.1//EN" "http://www.w3.org/Graphics/SVG/1.1/DTD/svg11.dtd"><svg width="100%" height="100%" viewBox="0 0 70 49" version="1.1" xmlns="http://www.w3.org/2000/svg" xmlns:xlink="http://www.w3.org/1999/xlink" xml:space="preserve" xmlns:serif="http://www.serif.com/" style="fill-rule:evenodd;clip-rule:evenodd;stroke-linejoin:round;stroke-miterlimit:2;"><rect x="0.807" y="0.29" width="69" height="48.474" style="fill:#fff;fill-opacity:0;"/><clipPath id="_clip1"><rect x="0.807" y="0.29" width="69" height="48.474"/></clipPath><g clip-path="url(#_clip1)"><rect x="0.479" y="33.02" width="70" height="6.046" style="fill:#fee673;"/><path d="M4.103,21.911l12.512,0l0,1.488l-12.512,0l0,-1.488Zm1.168,5.488l10.16,0l0,1.488l-10.16,0l0,-1.488Zm-2.16,5.904l14.464,0l0,1.52l-14.464,0l0,-1.52Z" style="fill:#262626;fill-rule:nonzero;"/><path d="M24.647,33.607c-1.568,0.587 -3.36,1.067 -5.376,1.44l-0.192,-1.52c2.101,-0.33 3.957,-0.789 5.568,-1.376l0,1.456Zm-1.664,-12.304c-0.726,1.952 -1.44,3.504 -2.144,4.656c0.682,-0.085 1.194,-0.16 1.536,-0.224l0.848,-1.856l1.328,0.496c-1.248,2.614 -2.267,4.48 -3.056,5.6c0.896,-0.256 1.829,-0.592 2.8,-1.008l0,1.392c-1.59,0.651 -3.115,1.099 -4.576,1.344l-0.4,-1.376c0.266,-0.106 0.496,-0.25 0.688,-0.432c0.49,-0.597 1.056,-1.52 1.696,-2.768l-2.256,0.352l-0.384,-1.392c0.224,-0.096 0.437,-0.282 0.64,-0.56c0.693,-1.44 1.301,-3.04 1.824,-4.8l1.456,0.576Zm4.128,6.768l0,1.792l2.496,0l0,-1.792l-2.496,0Zm0,3.184l0,2.048l2.496,0l0,-2.048l-2.496,0Zm0,3.456l0,0.832l-1.456,0l0,-8.944c-0.427,0.683 -0.838,1.275 -1.232,1.776l-0.464,-1.536c1.194,-1.824 2.042,-3.818 2.544,-5.984l1.44,0.288c-0.192,0.768 -0.432,1.526 -0.72,2.272l2.48,0c-0.256,-0.789 -0.544,-1.541 -0.864,-2.256l1.472,-0.4c0.384,1.078 0.661,1.963 0.832,2.656l2.304,0l0,1.44l-2.384,0l0,1.824l2.112,0l0,1.392l-2.112,0l0,1.792l2.112,0l0,1.392l-2.112,0l0,2.048l2.704,0l0,1.408l-6.656,0Zm2.496,-9.856l-2.496,0l0,1.824l2.496,0l0,-1.824Z" style="fill:#262626;fill-rule:nonzero;"/><path d="M49.095,21.671l0,13.904l-1.488,0l0,-0.912l-4.784,0l0,0.928l-1.44,0l0,-13.92l7.712,0Zm-6.272,11.568l4.784,0l0,-2.448l-4.784,0l0,2.448Zm0,-3.84l4.784,0l0,-2.512l-4.784,0l0,2.512Zm0,-3.904l4.784,0l0,-2.4l-4.784,0l0,2.4Zm-4,10.064l-1.488,0l0,-7.472c-0.523,1.334 -1.147,2.539 -1.872,3.616l-0.576,-1.504c1.098,-1.44 1.904,-3.082 2.416,-4.928l-2.096,0l0,-1.456l2.128,0l0,-2.992l1.488,0l0,2.992l1.936,0l0,1.456l-1.936,0l0,0.704c0.746,0.758 1.456,1.552 2.128,2.384l-0.832,1.232c-0.491,-0.789 -0.923,-1.445 -1.296,-1.968l0,7.936Z" style="fill:#262626;fill-rule:nonzero;"/><path d="M55.495,20.871c0.629,0.832 1.216,1.712 1.76,2.64l-0.992,0.496l3.312,0c0.576,-0.906 1.088,-1.989 1.536,-3.248l1.488,0.4c-0.331,1.003 -0.768,1.952 -1.312,2.848l3.04,0l0,1.472l-5.216,0l0,0.496c-0.032,0.715 -0.107,1.424 -0.224,2.128l6.368,0l0,1.472l-5.6,0c0.778,1.931 2.778,3.456 6,4.576l-0.896,1.44c-3.35,-1.365 -5.488,-3.184 -6.416,-5.456c-0.288,0.768 -0.64,1.435 -1.056,2c-1.088,1.44 -2.864,2.544 -5.328,3.312l-0.832,-1.328c2.453,-0.8 4.122,-1.808 5.008,-3.024c0.298,-0.458 0.554,-0.965 0.768,-1.52l-5.472,0l0,-1.472l5.888,0c0.138,-0.746 0.224,-1.456 0.256,-2.128l0,-0.496l-5.232,0l0,-1.472l3.424,0c-0.502,-0.885 -1.056,-1.706 -1.664,-2.464l1.392,-0.672Z" style="fill:#262626;fill-rule:nonzero;"/></g></svg>