<?xml version="1.0" encoding="UTF-8" standalone="no"?><!DOCTYPE svg PUBLIC "-//W3C//DTD SVG 1.1//EN" "http://www.w3.org/Graphics/SVG/1.1/DTD/svg11.dtd"><svg width="100%" height="100%" viewBox="0 0 70 49" version="1.1" xmlns="http://www.w3.org/2000/svg" xmlns:xlink="http://www.w3.org/1999/xlink" xml:space="preserve" xmlns:serif="http://www.serif.com/" style="fill-rule:evenodd;clip-rule:evenodd;stroke-linejoin:round;stroke-miterlimit:2;"><rect x="0.807" y="0.255" width="69" height="48.474" style="fill:#fff;fill-opacity:0;"/><path d="M4.151,22.037l12.416,0l0,1.12l-12.416,0l0,-1.12Zm1.168,5.536l10.064,0l0,1.12l-10.064,0l0,-1.12Zm-2.16,5.92l14.368,0l0,1.152l-14.368,0l0,-1.152Z" style="fill:#717171;fill-rule:nonzero;"/><path d="M24.663,33.397c-1.579,0.608 -3.382,1.104 -5.408,1.488l-0.144,-1.152c2.122,-0.352 3.973,-0.832 5.552,-1.44l0,1.104Zm-1.792,-12.192c-0.747,2.037 -1.51,3.68 -2.288,4.928c0.746,-0.107 1.413,-0.224 2,-0.352c0.16,-0.331 0.453,-0.96 0.88,-1.888l1.008,0.384c-1.355,2.773 -2.464,4.741 -3.328,5.904c1.056,-0.256 2.106,-0.614 3.152,-1.072l0,1.056c-1.59,0.65 -3.094,1.093 -4.512,1.328l-0.32,-1.056c0.202,-0.075 0.378,-0.182 0.528,-0.32c0.554,-0.64 1.237,-1.734 2.048,-3.28c-1.035,0.202 -1.883,0.357 -2.544,0.464l-0.288,-1.056c0.181,-0.086 0.341,-0.23 0.48,-0.432c0.789,-1.451 1.482,-3.131 2.08,-5.04l1.104,0.432Zm4.032,6.688l0,2.176l2.832,0l0,-2.176l-2.832,0Zm0,3.232l0,2.432l2.832,0l0,-2.432l-2.832,0Zm0,3.504l0,0.832l-1.12,0l0,-9.456c-0.438,0.746 -0.923,1.477 -1.456,2.192l-0.352,-1.168c1.269,-1.899 2.165,-3.958 2.688,-6.176l1.104,0.224c-0.235,0.906 -0.502,1.733 -0.8,2.48l2.912,0c-0.256,-0.864 -0.56,-1.691 -0.912,-2.48l1.12,-0.304c0.384,1.034 0.666,1.909 0.848,2.624l-0.432,0.16l2.896,0l0,1.088l-2.544,0l0,2.176l2.272,0l0,1.072l-2.272,0l0,2.176l2.272,0l0,1.056l-2.272,0l0,2.432l2.864,0l0,1.072l-6.816,0Zm2.832,-9.984l-2.832,0l0,2.176l2.832,0l0,-2.176Z" style="fill:#717171;fill-rule:nonzero;"/><path d="M48.935,21.765l0,13.728l-1.12,0l0,-0.992l-5.248,0l0,1.008l-1.104,0l0,-13.744l7.472,0Zm-6.368,11.648l5.248,0l0,-2.832l-5.248,0l0,2.832Zm0,-3.904l5.248,0l0,-2.832l-5.248,0l0,2.832Zm0,-3.904l5.248,0l0,-2.752l-5.248,0l0,2.752Zm-3.92,9.872l-1.136,0l0,-8.112c-0.544,1.546 -1.243,2.933 -2.096,4.16l-0.448,-1.136c1.162,-1.536 2,-3.312 2.512,-5.328l-2.224,0l0,-1.104l2.256,0l0,-3.12l1.136,0l0,3.12l2.064,0l0,1.104l-2.064,0l0,0.848c0.714,0.746 1.45,1.605 2.208,2.576l-0.624,0.928c-0.63,-0.971 -1.158,-1.734 -1.584,-2.288l0,8.352Z" style="fill:#717171;fill-rule:nonzero;"/><path d="M55.303,20.885c0.661,0.864 1.269,1.77 1.824,2.72l-1.04,0.528c-0.587,-1.046 -1.2,-1.958 -1.84,-2.736l1.056,-0.512Zm7.12,0.16c-0.384,1.162 -0.864,2.197 -1.44,3.104l3.296,0l0,1.12l-5.344,0l0,0.752c-0.032,0.885 -0.107,1.626 -0.224,2.224l6.496,0l0,1.12l-5.824,0c0.789,2.165 2.858,3.845 6.208,5.04l-0.672,1.072c-3.51,-1.419 -5.696,-3.35 -6.56,-5.792c-0.31,0.928 -0.715,1.728 -1.216,2.4c-1.099,1.418 -2.875,2.517 -5.328,3.296l-0.624,-1.008c2.453,-0.79 4.16,-1.824 5.12,-3.104c0.394,-0.587 0.698,-1.222 0.912,-1.904l-5.744,0l0,-1.12l6.032,0c0.149,-0.704 0.229,-1.446 0.24,-2.224l0,-0.752l-5.36,0l0,-1.12l7.312,0c0.586,-0.896 1.125,-2.032 1.616,-3.408l1.104,0.304Z" style="fill:#717171;fill-rule:nonzero;"/></svg>