<?xml version="1.0" encoding="UTF-8" standalone="no"?><!DOCTYPE svg PUBLIC "-//W3C//DTD SVG 1.1//EN" "http://www.w3.org/Graphics/SVG/1.1/DTD/svg11.dtd"><svg width="100%" height="100%" viewBox="0 0 70 49" version="1.1" xmlns="http://www.w3.org/2000/svg" xmlns:xlink="http://www.w3.org/1999/xlink" xml:space="preserve" xmlns:serif="http://www.serif.com/" style="fill-rule:evenodd;clip-rule:evenodd;stroke-linejoin:round;stroke-miterlimit:2;"><rect x="0.162" y="0.255" width="69" height="48.474" style="fill:#fff;fill-opacity:0;"/><path d="M4.913,27.541l0,2.4l3.936,0l0,-2.4l-3.936,0Zm3.936,3.472l-3.936,0l0,1.36l-1.152,0l0,-9.328l5.088,0l0,-2.192l1.168,0l0,2.192l5.184,0l0,7.968l-5.184,0l0,1.968c0,0.789 0.352,1.184 1.056,1.184l3.648,0c0.384,0 0.678,-0.091 0.88,-0.272c0.16,-0.192 0.272,-0.827 0.336,-1.904l1.088,0.368c-0.096,1.376 -0.282,2.202 -0.56,2.48c-0.298,0.277 -0.816,0.416 -1.552,0.416l-4.112,0c-1.301,0 -1.952,-0.699 -1.952,-2.096l0,-2.144Zm1.168,-1.072l4.048,0l0,-2.4l-4.048,0l0,2.4Zm4.048,-3.456l0,-2.352l-4.048,0l0,2.352l4.048,0Zm-5.216,-2.352l-3.936,0l0,2.352l3.936,0l0,-2.352Z" style="fill:#717171;fill-rule:nonzero;"/><path d="M22.721,29.605l5.936,0l0,3.936l-5.936,0l0,-3.936Zm4.832,2.912l0,-1.872l-3.728,0l0,1.872l3.728,0Zm-0.304,-6.032c1.334,0.938 2.438,1.856 3.312,2.752l-0.864,0.848c-0.81,-0.918 -1.888,-1.872 -3.232,-2.864l0.784,-0.736Zm-1.456,-5.824c0.224,0.533 0.411,1.024 0.56,1.472l6.432,0l0,1.12l-3.456,0c-0.256,0.629 -0.565,1.274 -0.928,1.936l3.552,0l0,8.544c0,1.12 -0.469,1.68 -1.408,1.68l-1.632,0l-0.288,-1.056l1.552,0.048c0.448,0 0.672,-0.31 0.672,-0.928l0,-7.264l-10.336,0l0,9.168l-1.104,0l0,-10.192l3.376,0c-0.224,-0.64 -0.506,-1.286 -0.848,-1.936l-3.328,0l0,-1.12l6.512,0c-0.202,-0.48 -0.4,-0.902 -0.592,-1.264l1.264,-0.208Zm1.36,4.528c0.342,-0.662 0.646,-1.307 0.912,-1.936l-4.848,0c0.256,0.544 0.512,1.189 0.768,1.936l3.168,0Zm-2.304,2.032c-0.906,1.098 -2.037,2.058 -3.392,2.88l-0.736,-0.96c1.312,-0.736 2.416,-1.616 3.312,-2.64l0.816,0.72Z" style="fill:#717171;fill-rule:nonzero;"/><path d="M36.753,28.853c-0.554,0.586 -1.232,1.226 -2.032,1.92l-0.352,-1.2c2.155,-1.846 3.59,-3.643 4.304,-5.392l-3.936,0l0,-1.104l2.496,0c-0.266,-0.704 -0.586,-1.398 -0.96,-2.08l1.104,-0.32c0.374,0.778 0.678,1.52 0.912,2.224l-0.464,0.176l2,0l0,0.976c-0.416,1.162 -1.056,2.314 -1.92,3.456c0.875,0.544 1.67,1.162 2.384,1.856l-0.656,0.992c-0.554,-0.608 -1.136,-1.152 -1.744,-1.632l0,6.768l-1.136,0l0,-6.64Zm11.056,-7.392l0,8.848l-1.168,0l0,-7.744l-4.496,0l0,7.744l-1.136,0l0,-8.848l6.8,0Zm-1.872,13.776c-0.874,0 -1.312,-0.464 -1.312,-1.392l0,-3.568l1.12,0l0,3.328c0,0.384 0.176,0.576 0.528,0.576l0.992,0c0.224,0 0.39,-0.086 0.496,-0.256c0.139,-0.214 0.23,-0.816 0.272,-1.808l1.072,0.336c-0.096,1.322 -0.272,2.128 -0.528,2.416c-0.245,0.245 -0.613,0.368 -1.104,0.368l-1.536,0Zm-2.128,-11.536l1.12,0l0,3.056c-0.064,2.389 -0.48,4.298 -1.248,5.728c-0.778,1.344 -2.021,2.378 -3.728,3.104l-0.624,-1.008c1.686,-0.736 2.854,-1.707 3.504,-2.912c0.619,-1.27 0.944,-2.907 0.976,-4.912l0,-3.056Z" style="fill:#717171;fill-rule:nonzero;"/><path d="M62.017,26.645l0,5.696l-1.104,0l0,-4.624l-6.432,0l0,4.624l-1.104,0l0,-5.696l8.64,0Zm2.384,-2.784l0,3.216l-1.168,0l0,-2.096l-11.056,0l0,2.08l-1.168,0l0,-3.2l2.48,0c-0.426,-0.8 -0.874,-1.526 -1.344,-2.176l1.024,-0.496c0.502,0.693 0.982,1.472 1.44,2.336l-0.656,0.336l6.128,0c0.662,-0.928 1.222,-1.92 1.68,-2.976l1.136,0.416c-0.512,1.013 -1.029,1.866 -1.552,2.56l3.056,0Zm-7.216,-3.072c0.395,0.64 0.822,1.424 1.28,2.352l-1.008,0.528c-0.394,-0.854 -0.826,-1.648 -1.296,-2.384l1.024,-0.496Zm-0.304,8l1.136,0l0,1.728c-0.064,1.365 -0.597,2.469 -1.6,3.312c-0.981,0.757 -2.597,1.354 -4.848,1.792l-0.656,-1.024c2.24,-0.384 3.792,-0.891 4.656,-1.52c0.811,-0.651 1.248,-1.504 1.312,-2.56l0,-1.728Zm2.768,6.432c-1.002,0 -1.504,-0.534 -1.504,-1.6l0,-2.912l1.104,0l0,2.688c0,0.49 0.251,0.736 0.752,0.736l2.64,0c0.299,0 0.523,-0.086 0.672,-0.256c0.16,-0.224 0.272,-0.848 0.336,-1.872l1.056,0.336c-0.096,1.354 -0.298,2.186 -0.608,2.496c-0.256,0.256 -0.672,0.384 -1.248,0.384l-3.2,0Z" style="fill:#717171;fill-rule:nonzero;"/></svg>