<?xml version="1.0" encoding="UTF-8" standalone="no"?><!DOCTYPE svg PUBLIC "-//W3C//DTD SVG 1.1//EN" "http://www.w3.org/Graphics/SVG/1.1/DTD/svg11.dtd"><svg width="100%" height="100%" viewBox="0 0 70 49" version="1.1" xmlns="http://www.w3.org/2000/svg" xmlns:xlink="http://www.w3.org/1999/xlink" xml:space="preserve" xmlns:serif="http://www.serif.com/" style="fill-rule:evenodd;clip-rule:evenodd;stroke-linejoin:round;stroke-miterlimit:2;"><rect x="0.162" y="0.29" width="69" height="48.474" style="fill:#fff;fill-opacity:0;"/><clipPath id="_clip1"><rect x="0.162" y="0.29" width="69" height="48.474"/></clipPath><g clip-path="url(#_clip1)"><rect x="-0.167" y="33.02" width="70" height="6.046" style="fill:#fee673;"/><path d="M5.121,27.735l0,2l3.552,0l0,-2l-3.552,0Zm3.552,3.424l-3.552,0l0,1.264l-1.52,0l0,-9.52l5.072,0l0,-2.064l1.52,0l0,2.064l5.168,0l0,8.256l-5.168,0l0,1.616c0,0.758 0.336,1.136 1.008,1.136l3.488,0c0.32,0 0.566,-0.085 0.736,-0.256c0.128,-0.17 0.219,-0.752 0.272,-1.744l1.456,0.496c-0.096,1.366 -0.288,2.203 -0.576,2.512c-0.309,0.278 -0.853,0.416 -1.632,0.416l-4.096,0c-1.45,0 -2.176,-0.778 -2.176,-2.336l0,-1.84Zm1.52,-1.424l3.664,0l0,-2l-3.664,0l0,2Zm3.664,-3.392l0,-2l-3.664,0l0,2l3.664,0Zm-5.184,-2l-3.552,0l0,2l3.552,0l0,-2Z" style="fill:#262626;fill-rule:nonzero;"/><path d="M22.561,29.607c-0.405,0.278 -0.714,0.48 -0.928,0.608l-0.944,-1.216l0,6.464l-1.456,0l0,-10.384l3.328,0c-0.256,-0.672 -0.506,-1.221 -0.752,-1.648l-3.248,0l0,-1.456l6.288,0c-0.138,-0.384 -0.293,-0.741 -0.464,-1.072l1.68,-0.256c0.086,0.214 0.24,0.656 0.464,1.328l6.304,0l0,1.456l-3.36,0c-0.266,0.63 -0.528,1.179 -0.784,1.648l3.44,0l0,8.544c0,1.248 -0.522,1.872 -1.568,1.872l-1.632,0l-0.384,-1.376l1.536,0.048c0.395,0 0.592,-0.288 0.592,-0.864l0,-6.88l-9.984,0l0,2.512c1.248,-0.682 2.315,-1.509 3.2,-2.48l1.072,0.944c-0.672,0.779 -1.424,1.478 -2.256,2.096l6.112,0l0,4.224l-6.256,0l0,-4.112Zm4.784,2.768l0,-1.52l-3.312,0l0,1.52l3.312,0Zm0.048,-5.936c1.28,0.875 2.363,1.75 3.248,2.624l-1.136,1.12c-0.693,-0.81 -1.738,-1.733 -3.136,-2.768l1.024,-0.976Zm-0.368,-1.36c0.278,-0.512 0.539,-1.061 0.784,-1.648l-4.336,0c0.267,0.587 0.48,1.136 0.64,1.648l2.912,0Z" style="fill:#262626;fill-rule:nonzero;"/><path d="M36.577,29.351c-0.544,0.544 -1.136,1.088 -1.776,1.632l-0.48,-1.6c2.038,-1.738 3.414,-3.413 4.128,-5.024l-3.76,0l0,-1.456l2.272,0c-0.256,-0.661 -0.533,-1.269 -0.832,-1.824l1.44,-0.416c0.384,0.875 0.662,1.622 0.832,2.24l1.568,0l0,1.28c-0.373,1.099 -0.986,2.224 -1.84,3.376c0.854,0.523 1.622,1.104 2.304,1.744l-0.864,1.312c-0.512,-0.565 -1.013,-1.045 -1.504,-1.44l0,6.4l-1.488,0l0,-6.224Zm11.376,-8l0,9.008l-1.536,0l0,-7.552l-4.048,0l0,7.552l-1.504,0l0,-9.008l7.088,0Zm-2.064,13.968c-0.96,0 -1.44,-0.522 -1.44,-1.568l0,-2.656c-0.181,0.544 -0.389,1.046 -0.624,1.504c-0.778,1.334 -2.032,2.368 -3.76,3.104l-0.816,-1.328c1.664,-0.736 2.806,-1.674 3.424,-2.816c0.576,-1.216 0.896,-2.789 0.96,-4.72l0,-3.024l1.472,0l0,3.024c-0.053,1.323 -0.197,2.48 -0.432,3.472l1.248,0l0,3.12c0,0.331 0.139,0.496 0.416,0.496l0.864,0c0.16,0 0.288,-0.08 0.384,-0.24c0.086,-0.181 0.155,-0.73 0.208,-1.648l1.408,0.464c-0.106,1.355 -0.293,2.171 -0.56,2.448c-0.266,0.246 -0.656,0.368 -1.168,0.368l-1.584,0Z" style="fill:#262626;fill-rule:nonzero;"/><path d="M62.177,26.535l0,5.856l-1.472,0l0,-4.448l-6.016,0l0,4.448l-1.472,0l0,-5.856l8.96,0Zm2.368,-2.8l0,3.408l-1.536,0l0,-1.936l-10.608,0l0,1.92l-1.536,0l0,-3.392l2.352,0c-0.394,-0.725 -0.794,-1.36 -1.2,-1.904l1.344,-0.656c0.523,0.715 0.998,1.467 1.424,2.256l-0.608,0.304l3.104,0c-0.416,-0.864 -0.848,-1.632 -1.296,-2.304l1.344,-0.656c0.448,0.704 0.886,1.467 1.312,2.288l-1.328,0.672l2.688,0c0.619,-0.906 1.142,-1.861 1.568,-2.864l1.504,0.544c-0.437,0.896 -0.901,1.67 -1.392,2.32l2.864,0Zm-7.84,5.12l1.488,0l0,1.776c-0.01,0.022 -0.016,0.043 -0.016,0.064l1.28,0l0,2.464c0,0.48 0.224,0.72 0.672,0.72l2.432,0c0.214,0 0.39,-0.085 0.528,-0.256c0.118,-0.17 0.208,-0.741 0.272,-1.712l1.392,0.448c-0.117,1.419 -0.325,2.272 -0.624,2.56c-0.288,0.256 -0.72,0.384 -1.296,0.384l-3.168,0c-1.12,0 -1.68,-0.613 -1.68,-1.84l0,-1.728c-0.256,0.854 -0.736,1.579 -1.44,2.176c-1.002,0.779 -2.624,1.376 -4.864,1.792l-0.88,-1.344c2.272,-0.384 3.803,-0.858 4.592,-1.424c0.79,-0.608 1.227,-1.397 1.312,-2.368l0,-1.712Z" style="fill:#262626;fill-rule:nonzero;"/></g></svg>