<?xml version="1.0" encoding="utf-8"?>
<svg version="1.1" xmlns:xlink="http://www.w3.org/1999/xlink" width="375px" height="240px" xmlns="http://www.w3.org/2000/svg">
  <g>
    <path d="M 0 0  L 375 0  L 375 240  L 0 240  L 0 0  " fill-rule="nonzero" fill="#cccccc" stroke="none" />
    <path d="M 17 17  L 358 17  L 358 223  L 17 223  L 17 17  " fill-rule="nonzero" fill="#ffffff" stroke="none" />
    <path d="M 213 72  C 202.92 72  195 64.08  195 54  C 195 43.92  202.92 36  213 36  C 223.08 36  231 43.92  231 54  C 231 64.08  223.08 72  213 72  " fill-rule="nonzero" fill="#cccccc" stroke="none" />
    <path d="M 23 217  L 23 110.3  L 105.25 61.8  L 220.4 142.504  L 286.2 90.9  L 352 142.504  L 352 217  L 23 217  " fill-rule="nonzero" fill="#169bd5" stroke="none" />
  </g>
</svg>