<?xml version="1.0" encoding="utf-8"?>
<svg version="1.1" xmlns:xlink="http://www.w3.org/1999/xlink" width="300px" height="192px" xmlns="http://www.w3.org/2000/svg">
  <g>
    <path d="M 0 0  L 300 0  L 300 192  L 0 192  L 0 0  " fill-rule="nonzero" fill="#cccccc" stroke="none" />
    <path d="M 13 13  L 287 13  L 287 179  L 13 179  L 13 13  " fill-rule="nonzero" fill="#ffffff" stroke="none" />
    <path d="M 170.4 57.6  C 162.336 57.6  156 51.264  156 43.2  C 156 35.136  162.336 28.8  170.4 28.8  C 178.464 28.8  184.8 35.136  184.8 43.2  C 184.8 51.264  178.464 57.6  170.4 57.6  " fill-rule="nonzero" fill="#cccccc" stroke="none" />
    <path d="M 18 174  L 18 88.2  L 84 49.2  L 176.4 114.096  L 229.2 72.6  L 282 114.096  L 282 174  L 18 174  " fill-rule="nonzero" fill="#169bd5" stroke="none" />
  </g>
</svg>