<?xml version="1.0" encoding="UTF-8" standalone="no"?>
<!DOCTYPE svg PUBLIC "-//W3C//DTD SVG 1.1//EN" "http://www.w3.org/Graphics/SVG/1.1/DTD/svg11.dtd">
<svg width="100%" height="100%" viewBox="0 0 718 322" version="1.1" xmlns="http://www.w3.org/2000/svg" xmlns:xlink="http://www.w3.org/1999/xlink" xml:space="preserve" xmlns:serif="http://www.serif.com/" style="fill-rule:evenodd;clip-rule:evenodd;stroke-linejoin:round;stroke-miterlimit:2;">
    <g transform="matrix(1,0,0,1,-16,-791.44)">
        <g transform="matrix(1.02571,0,0,1.10274,-4.51429,156.262)">
            <path d="M720,599.578C720,586.565 708.642,576 694.652,576L45.348,576C31.358,576 20,586.565 20,599.578L20,844.422C20,857.435 31.358,868 45.348,868L694.652,868C708.642,868 720,857.435 720,844.422L720,599.578Z" style="fill:rgb(209,209,211);"/>
            <clipPath id="_clip1">
                <path d="M720,599.578C720,586.565 708.642,576 694.652,576L45.348,576C31.358,576 20,586.565 20,599.578L20,844.422C20,857.435 31.358,868 45.348,868L694.652,868C708.642,868 720,857.435 720,844.422L720,599.578Z"/>
            </clipPath>
            <g clip-path="url(#_clip1)">
                <g transform="matrix(0.97493,0,0,0.95456,4.40111,52.9009)">
                    <rect x="16" y="548" width="718" height="76" style="fill:white;fill-opacity:0.4;"/>
                </g>
                <g transform="matrix(1.94986,0,0,1.81366,20,576.025)">
                    <rect x="0" y="0" width="359" height="146" style="fill:url(#_Linear2);fill-rule:nonzero;"/>
                </g>
            </g>
        </g>
        <g transform="matrix(1,0,0,1.23846,-2.22045e-13,90.4708)">
            <g transform="matrix(1,0,0,0.807453,-1031,-1665.09)">
                <text x="1117.65px" y="3020.31px" style="font-family:'ArialMT', 'Arial', sans-serif;font-size:24px;">App</text>
            </g>
            <g transform="matrix(2,0,0,1.61491,16,566)">
                <path d="M61.652,53C70.296,53 76,58.589 76,67.348L76,98.652C76,107.411 70.296,113 61.652,113L30.348,113C21.704,113 16,107.411 16,98.652L16,67.348C16,58.589 21.704,53 30.348,53L61.652,53Z" style="fill:rgb(255,71,123);"/>
            </g>
        </g>
        <g transform="matrix(1,0,0,1.23846,180,90.4708)">
            <g transform="matrix(1,0,0,0.807453,-1031,-1665.09)">
                <text x="1117.65px" y="3020.31px" style="font-family:'ArialMT', 'Arial', sans-serif;font-size:24px;">App</text>
            </g>
            <g transform="matrix(2,0,0,1.61491,16,566)">
                <path d="M61.652,53C70.296,53 76,58.589 76,67.348L76,98.652C76,107.411 70.296,113 61.652,113L30.348,113C21.704,113 16,107.411 16,98.652L16,67.348C16,58.589 21.704,53 30.348,53L61.652,53Z" style="fill:rgb(255,132,51);"/>
            </g>
        </g>
        <g transform="matrix(1,0,0,1.23846,360,90.4708)">
            <g transform="matrix(1,0,0,0.807453,-1031,-1665.09)">
                <text x="1117.65px" y="3020.31px" style="font-family:'ArialMT', 'Arial', sans-serif;font-size:24px;">App</text>
            </g>
            <g transform="matrix(2,0,0,1.61491,16,566)">
                <path d="M61.652,53C70.296,53 76,58.589 76,67.348L76,98.652C76,107.411 70.296,113 61.652,113L30.348,113C21.704,113 16,107.411 16,98.652L16,67.348C16,58.589 21.704,53 30.348,53L61.652,53Z" style="fill:rgb(157,107,237);"/>
            </g>
        </g>
        <g transform="matrix(1,0,0,1.23846,540,90.4708)">
            <g transform="matrix(1,0,0,0.807453,-1031,-1665.09)">
                <text x="1117.65px" y="3020.31px" style="font-family:'ArialMT', 'Arial', sans-serif;font-size:24px;">App</text>
            </g>
            <g transform="matrix(2,0,0,1.61491,16,566)">
                <path d="M61.652,53C70.296,53 76,58.589 76,67.348L76,98.652C76,107.411 70.296,113 61.652,113L30.348,113C21.704,113 16,107.411 16,98.652L16,67.348C16,58.589 21.704,53 30.348,53L61.652,53Z" style="fill:rgb(16,177,249);"/>
            </g>
        </g>
        <g transform="matrix(2,0,0,2,15.124,794.6)">
            <text x="37px" y="23px" style="font-family:'ArialMT', 'Arial', sans-serif;font-size:13px;">S<tspan x="45.476px 54.669px 64.586px 74.503px 82.979px 91.455px 99.2px 102.617px 112.534px 121.727px " y="23px 23px 23px 23px 23px 23px 23px 23px 23px 23px ">UGGESTIONS</tspan></text>
        </g>
        <g transform="matrix(2,0,0,2,21.3711,794.784)">
            <text x="279.811px" y="23px" style="font-family:'ArialMT', 'Arial', sans-serif;font-size:13px;">S<tspan x="288.287px 295.322px 302.357px 311.55px 314.967px 325.601px 332.636px 336.77px " y="23px 23px 23px 23px 23px 23px 23px 23px ">how More</tspan></text>
        </g>
        <g transform="matrix(1,0,0,1,4,229.44)">
            <path d="M72,591.094C72,586.075 67.925,582 62.906,582L41.094,582C36.075,582 32,586.075 32,591.094L32,612.906C32,617.925 36.075,622 41.094,622L62.906,622C67.925,622 72,617.925 72,612.906L72,591.094Z" style="fill:rgb(28,99,240);"/>
        </g>
    </g>
    <defs>
        <linearGradient id="_Linear2" x1="0" y1="0" x2="1" y2="0" gradientUnits="userSpaceOnUse" gradientTransform="matrix(6.27019e-14,1024,-1024,6.27019e-14,16,53)"><stop offset="0" style="stop-color:rgb(255,117,74);stop-opacity:0"/><stop offset="1" style="stop-color:rgb(255,71,123);stop-opacity:0"/></linearGradient>
    </defs>
</svg>
