<?xml version="1.0" encoding="utf-8"?>
<svg version="1.1" xmlns:xlink="http://www.w3.org/1999/xlink" width="12px" height="12px" xmlns="http://www.w3.org/2000/svg">
  <defs>
    <mask fill="white" id="clip1">
      <path d="M 11.9346086817577 8.64651131824234  C 11.9346086817577 8.64651131824234  11.9346086817577 3.36347536617843  11.9346086817577 3.36347536617843  C 11.9346086817577 1.54540878828229  10.4588696671105 0.0718641810918745  8.64299749667106 0.0718641810918745  C 8.64299749667106 0.0718641810918745  3.35996154460719 0.0718641810918745  3.35996154460719 0.0718641810918745  C 1.54408937416775 0.0718641810918745  0.0683503595205934 1.54540878828229  0.0683503595205934 3.36347536617843  C 0.0683503595205934 3.36347536617843  0.0683503595205934 8.64651131824234  0.0683503595205934 8.64651131824234  C 0.0683503595205934 10.4645778961385  1.54408937416775 11.9381225033289  3.35996154460719 11.9381225033289  C 3.35996154460719 11.9381225033289  8.64299749667106 11.9381225033289  8.64299749667106 11.9381225033289  C 10.4588696671105 11.9381225033289  11.9346086817577 10.4645778961385  11.9346086817577 8.64651131824234  Z " fill-rule="evenodd" />
    </mask>
  </defs>
  <g transform="matrix(1 0 0 1 -332 -11 )">
    <path d="M 11.9346086817577 8.64651131824234  C 11.9346086817577 8.64651131824234  11.9346086817577 3.36347536617843  11.9346086817577 3.36347536617843  C 11.9346086817577 1.54540878828229  10.4588696671105 0.0718641810918745  8.64299749667106 0.0718641810918745  C 8.64299749667106 0.0718641810918745  3.35996154460719 0.0718641810918745  3.35996154460719 0.0718641810918745  C 1.54408937416775 0.0718641810918745  0.0683503595205934 1.54540878828229  0.0683503595205934 3.36347536617843  C 0.0683503595205934 3.36347536617843  0.0683503595205934 8.64651131824234  0.0683503595205934 8.64651131824234  C 0.0683503595205934 10.4645778961385  1.54408937416775 11.9381225033289  3.35996154460719 11.9381225033289  C 3.35996154460719 11.9381225033289  8.64299749667106 11.9381225033289  8.64299749667106 11.9381225033289  C 10.4588696671105 11.9381225033289  11.9346086817577 10.4645778961385  11.9346086817577 8.64651131824234  Z " fill-rule="nonzero" fill="#ffffff" stroke="none" fill-opacity="0" transform="matrix(1 0 0 1 332 11 )" />
    <path d="M 11.9346086817577 8.64651131824234  C 11.9346086817577 8.64651131824234  11.9346086817577 3.36347536617843  11.9346086817577 3.36347536617843  C 11.9346086817577 1.54540878828229  10.4588696671105 0.0718641810918745  8.64299749667106 0.0718641810918745  C 8.64299749667106 0.0718641810918745  3.35996154460719 0.0718641810918745  3.35996154460719 0.0718641810918745  C 1.54408937416775 0.0718641810918745  0.0683503595205934 1.54540878828229  0.0683503595205934 3.36347536617843  C 0.0683503595205934 3.36347536617843  0.0683503595205934 8.64651131824234  0.0683503595205934 8.64651131824234  C 0.0683503595205934 10.4645778961385  1.54408937416775 11.9381225033289  3.35996154460719 11.9381225033289  C 3.35996154460719 11.9381225033289  8.64299749667106 11.9381225033289  8.64299749667106 11.9381225033289  C 10.4588696671105 11.9381225033289  11.9346086817577 10.4645778961385  11.9346086817577 8.64651131824234  Z " stroke-width="2.88564580559254" stroke="#333333" fill="none" transform="matrix(1 0 0 1 332 11 )" mask="url(#clip1)" />
  </g>
</svg>