<?xml version="1.0" encoding="utf-8"?>
<svg version="1.1" xmlns:xlink="http://www.w3.org/1999/xlink" width="12px" height="13px" xmlns="http://www.w3.org/2000/svg">
  <defs>
    <mask fill="white" id="clip2">
      <path d="M 11.9346086817577 9.34225565912117  C 11.9346086817577 9.34225565912117  11.9346086817577 4.05921970705726  11.9346086817577 4.05921970705726  C 11.9346086817577 2.24115312916112  10.4588696671105 0.767608521970704  8.64299749667106 0.767608521970704  C 8.64299749667106 0.767608521970704  3.35996154460719 0.767608521970704  3.35996154460719 0.767608521970704  C 1.54408937416775 0.767608521970704  0.0683503595205934 2.24115312916112  0.0683503595205934 4.05921970705726  C 0.0683503595205934 4.05921970705726  0.0683503595205934 9.34225565912117  0.0683503595205934 9.34225565912117  C 0.0683503595205934 11.1603222370173  1.54408937416775 12.6338668442077  3.35996154460719 12.6338668442077  C 3.35996154460719 12.6338668442077  8.64299749667106 12.6338668442077  8.64299749667106 12.6338668442077  C 10.4588696671105 12.6338668442077  11.9346086817577 11.1603222370173  11.9346086817577 9.34225565912117  Z " fill-rule="evenodd" />
    </mask>
  </defs>
  <g transform="matrix(1 0 0 1 -332 -23 )">
    <path d="M 11.9346086817577 9.34225565912117  C 11.9346086817577 9.34225565912117  11.9346086817577 4.05921970705726  11.9346086817577 4.05921970705726  C 11.9346086817577 2.24115312916112  10.4588696671105 0.767608521970704  8.64299749667106 0.767608521970704  C 8.64299749667106 0.767608521970704  3.35996154460719 0.767608521970704  3.35996154460719 0.767608521970704  C 1.54408937416775 0.767608521970704  0.0683503595205934 2.24115312916112  0.0683503595205934 4.05921970705726  C 0.0683503595205934 4.05921970705726  0.0683503595205934 9.34225565912117  0.0683503595205934 9.34225565912117  C 0.0683503595205934 11.1603222370173  1.54408937416775 12.6338668442077  3.35996154460719 12.6338668442077  C 3.35996154460719 12.6338668442077  8.64299749667106 12.6338668442077  8.64299749667106 12.6338668442077  C 10.4588696671105 12.6338668442077  11.9346086817577 11.1603222370173  11.9346086817577 9.34225565912117  Z " fill-rule="nonzero" fill="#ffffff" stroke="none" fill-opacity="0" transform="matrix(1 0 0 1 332 23 )" />
    <path d="M 11.9346086817577 9.34225565912117  C 11.9346086817577 9.34225565912117  11.9346086817577 4.05921970705726  11.9346086817577 4.05921970705726  C 11.9346086817577 2.24115312916112  10.4588696671105 0.767608521970704  8.64299749667106 0.767608521970704  C 8.64299749667106 0.767608521970704  3.35996154460719 0.767608521970704  3.35996154460719 0.767608521970704  C 1.54408937416775 0.767608521970704  0.0683503595205934 2.24115312916112  0.0683503595205934 4.05921970705726  C 0.0683503595205934 4.05921970705726  0.0683503595205934 9.34225565912117  0.0683503595205934 9.34225565912117  C 0.0683503595205934 11.1603222370173  1.54408937416775 12.6338668442077  3.35996154460719 12.6338668442077  C 3.35996154460719 12.6338668442077  8.64299749667106 12.6338668442077  8.64299749667106 12.6338668442077  C 10.4588696671105 12.6338668442077  11.9346086817577 11.1603222370173  11.9346086817577 9.34225565912117  Z " stroke-width="2.88564580559254" stroke="#333333" fill="none" transform="matrix(1 0 0 1 332 23 )" mask="url(#clip2)" />
  </g>
</svg>