<?xml version="1.0" encoding="utf-8"?>
<svg version="1.1" xmlns:xlink="http://www.w3.org/1999/xlink" width="13px" height="12px" xmlns="http://www.w3.org/2000/svg">
  <defs>
    <mask fill="white" id="clip3">
      <path d="M 12.3630741944075 8.64651131824234  C 12.3630741944075 8.64651131824234  12.3630741944075 3.36347536617843  12.3630741944075 3.36347536617843  C 12.3630741944075 1.54540878828229  10.8873351797603 0.0718641810918745  9.07146300932089 0.0718641810918745  C 9.07146300932089 0.0718641810918745  3.78842705725702 0.0718641810918745  3.78842705725702 0.0718641810918745  C 1.97255488681759 0.0718641810918745  0.49681587217043 1.54540878828229  0.49681587217043 3.36347536617843  C 0.49681587217043 3.36347536617843  0.49681587217043 8.64651131824234  0.49681587217043 8.64651131824234  C 0.49681587217043 10.4645778961385  1.97255488681759 11.9381225033289  3.78842705725702 11.9381225033289  C 3.78842705725702 11.9381225033289  9.07146300932089 11.9381225033289  9.07146300932089 11.9381225033289  C 10.8873351797603 11.9381225033289  12.3630741944075 10.4645778961385  12.3630741944075 8.64651131824234  Z " fill-rule="evenodd" />
    </mask>
  </defs>
  <g transform="matrix(1 0 0 1 -344 -11 )">
    <path d="M 12.3630741944075 8.64651131824234  C 12.3630741944075 8.64651131824234  12.3630741944075 3.36347536617843  12.3630741944075 3.36347536617843  C 12.3630741944075 1.54540878828229  10.8873351797603 0.0718641810918745  9.07146300932089 0.0718641810918745  C 9.07146300932089 0.0718641810918745  3.78842705725702 0.0718641810918745  3.78842705725702 0.0718641810918745  C 1.97255488681759 0.0718641810918745  0.49681587217043 1.54540878828229  0.49681587217043 3.36347536617843  C 0.49681587217043 3.36347536617843  0.49681587217043 8.64651131824234  0.49681587217043 8.64651131824234  C 0.49681587217043 10.4645778961385  1.97255488681759 11.9381225033289  3.78842705725702 11.9381225033289  C 3.78842705725702 11.9381225033289  9.07146300932089 11.9381225033289  9.07146300932089 11.9381225033289  C 10.8873351797603 11.9381225033289  12.3630741944075 10.4645778961385  12.3630741944075 8.64651131824234  Z " fill-rule="nonzero" fill="#ffffff" stroke="none" fill-opacity="0" transform="matrix(1 0 0 1 344 11 )" />
    <path d="M 12.3630741944075 8.64651131824234  C 12.3630741944075 8.64651131824234  12.3630741944075 3.36347536617843  12.3630741944075 3.36347536617843  C 12.3630741944075 1.54540878828229  10.8873351797603 0.0718641810918745  9.07146300932089 0.0718641810918745  C 9.07146300932089 0.0718641810918745  3.78842705725702 0.0718641810918745  3.78842705725702 0.0718641810918745  C 1.97255488681759 0.0718641810918745  0.49681587217043 1.54540878828229  0.49681587217043 3.36347536617843  C 0.49681587217043 3.36347536617843  0.49681587217043 8.64651131824234  0.49681587217043 8.64651131824234  C 0.49681587217043 10.4645778961385  1.97255488681759 11.9381225033289  3.78842705725702 11.9381225033289  C 3.78842705725702 11.9381225033289  9.07146300932089 11.9381225033289  9.07146300932089 11.9381225033289  C 10.8873351797603 11.9381225033289  12.3630741944075 10.4645778961385  12.3630741944075 8.64651131824234  Z " stroke-width="2.88564580559254" stroke="#333333" fill="none" transform="matrix(1 0 0 1 344 11 )" mask="url(#clip3)" />
  </g>
</svg>