<?xml version="1.0" encoding="utf-8"?>
<svg version="1.1" xmlns:xlink="http://www.w3.org/1999/xlink" width="13px" height="13px" xmlns="http://www.w3.org/2000/svg">
  <defs>
    <mask fill="white" id="clip404">
      <path d="M 12.3630741944075 9.34225565912117  C 12.3630741944075 9.34225565912117  12.3630741944075 4.05921970705726  12.3630741944075 4.05921970705726  C 12.3630741944075 2.24115312916112  10.8873351797603 0.767608521970704  9.07146300932089 0.767608521970704  C 9.07146300932089 0.767608521970704  3.78842705725702 0.767608521970704  3.78842705725702 0.767608521970704  C 1.97255488681759 0.767608521970704  0.49681587217043 2.24115312916112  0.49681587217043 4.05921970705726  C 0.49681587217043 4.05921970705726  0.49681587217043 9.34225565912117  0.49681587217043 9.34225565912117  C 0.49681587217043 11.1603222370173  1.97255488681759 12.6338668442077  3.78842705725702 12.6338668442077  C 3.78842705725702 12.6338668442077  9.07146300932089 12.6338668442077  9.07146300932089 12.6338668442077  C 10.8873351797603 12.6338668442077  12.3630741944075 11.1603222370173  12.3630741944075 9.34225565912117  Z " fill-rule="evenodd" />
    </mask>
  </defs>
  <g transform="matrix(1 0 0 1 -344 -23 )">
    <path d="M 12.3630741944075 9.34225565912117  C 12.3630741944075 9.34225565912117  12.3630741944075 4.05921970705726  12.3630741944075 4.05921970705726  C 12.3630741944075 2.24115312916112  10.8873351797603 0.767608521970704  9.07146300932089 0.767608521970704  C 9.07146300932089 0.767608521970704  3.78842705725702 0.767608521970704  3.78842705725702 0.767608521970704  C 1.97255488681759 0.767608521970704  0.49681587217043 2.24115312916112  0.49681587217043 4.05921970705726  C 0.49681587217043 4.05921970705726  0.49681587217043 9.34225565912117  0.49681587217043 9.34225565912117  C 0.49681587217043 11.1603222370173  1.97255488681759 12.6338668442077  3.78842705725702 12.6338668442077  C 3.78842705725702 12.6338668442077  9.07146300932089 12.6338668442077  9.07146300932089 12.6338668442077  C 10.8873351797603 12.6338668442077  12.3630741944075 11.1603222370173  12.3630741944075 9.34225565912117  Z " fill-rule="nonzero" fill="#ffffff" stroke="none" fill-opacity="0" transform="matrix(1 0 0 1 344 23 )" />
    <path d="M 12.3630741944075 9.34225565912117  C 12.3630741944075 9.34225565912117  12.3630741944075 4.05921970705726  12.3630741944075 4.05921970705726  C 12.3630741944075 2.24115312916112  10.8873351797603 0.767608521970704  9.07146300932089 0.767608521970704  C 9.07146300932089 0.767608521970704  3.78842705725702 0.767608521970704  3.78842705725702 0.767608521970704  C 1.97255488681759 0.767608521970704  0.49681587217043 2.24115312916112  0.49681587217043 4.05921970705726  C 0.49681587217043 4.05921970705726  0.49681587217043 9.34225565912117  0.49681587217043 9.34225565912117  C 0.49681587217043 11.1603222370173  1.97255488681759 12.6338668442077  3.78842705725702 12.6338668442077  C 3.78842705725702 12.6338668442077  9.07146300932089 12.6338668442077  9.07146300932089 12.6338668442077  C 10.8873351797603 12.6338668442077  12.3630741944075 11.1603222370173  12.3630741944075 9.34225565912117  Z " stroke-width="2.88564580559254" stroke="#333333" fill="none" transform="matrix(1 0 0 1 344 23 )" mask="url(#clip404)" />
  </g>
</svg>